<?xml version="1.0" standalone="no"?>
<!DOCTYPE svg PUBLIC "-//W3C//DTD SVG 20010904//EN"
 "http://www.w3.org/TR/2001/REC-SVG-20010904/DTD/svg10.dtd">
<svg version="1.0" xmlns="http://www.w3.org/2000/svg"
 width="512.000000pt" height="512.000000pt" viewBox="0 0 512.000000 512.000000"
 preserveAspectRatio="xMidYMid meet">

<g transform="translate(0.000000,512.000000) scale(0.100000,-0.100000)"
fill="#000000" stroke="none">
<path d="M3525 5102 c-47 -17 -303 -180 -352 -225 -45 -40 -35 -129 16 -157
49 -26 82 -13 241 92 123 82 162 103 190 103 30 0 129 -63 645 -407 336 -223
619 -415 630 -428 13 -14 20 -36 20 -62 0 -33 -6 -45 -33 -69 -20 -18 -43 -29
-62 -29 -22 0 -172 95 -600 380 -427 284 -578 380 -600 380 -22 0 -173 -96
-600 -380 -441 -293 -578 -380 -601 -380 -22 0 -41 10 -66 35 -31 31 -35 40
-30 72 4 19 14 44 23 54 9 10 81 61 161 115 154 103 183 135 169 189 -11 42
-53 75 -97 75 -31 0 -66 -18 -203 -110 -181 -120 -215 -155 -242 -249 -51
-173 67 -353 248 -377 l48 -7 0 -170 c0 -134 -3 -167 -12 -160 -59 45 -791
523 -818 534 -45 18 -155 18 -200 0 -19 -8 -107 -63 -195 -122 -187 -124 -206
-149 -170 -219 19 -38 69 -64 104 -55 14 3 94 51 178 107 137 90 156 100 190
96 52 -5 1256 -805 1279 -850 9 -18 13 -40 9 -58 -8 -38 -58 -80 -95 -80 -22
0 -178 99 -600 380 -427 284 -578 380 -600 380 -22 0 -173 -96 -600 -380 -422
-281 -578 -380 -600 -380 -35 0 -85 41 -94 77 -14 53 10 80 163 183 80 53 154
106 164 117 10 11 20 37 24 56 5 32 1 41 -30 72 -57 57 -75 52 -270 -77 -180
-120 -216 -156 -243 -246 -29 -96 -6 -201 63 -282 43 -50 140 -100 196 -100
l37 0 0 -385 c0 -212 -2 -385 -4 -385 -2 0 -28 11 -58 25 -30 14 -82 28 -116
31 -60 7 -62 6 -97 -29 -39 -39 -44 -70 -20 -116 15 -30 45 -45 106 -55 55 -9
101 -45 129 -101 18 -35 37 -55 62 -68 33 -16 39 -16 79 -2 117 40 211 -2 240
-108 8 -31 7 -50 -5 -88 -9 -26 -16 -61 -16 -77 0 -34 31 -78 63 -88 12 -4 36
-16 52 -28 l30 -21 -348 -5 -349 -5 -30 -34 c-26 -29 -30 -39 -25 -75 4 -27
15 -49 32 -63 l26 -23 435 0 436 0 29 29 c24 25 29 38 29 78 0 66 -23 141 -60
191 l-30 42 765 0 765 0 0 -143 0 -143 -45 -22 c-25 -12 -64 -39 -88 -61 -39
-35 -47 -39 -114 -43 -177 -12 -306 -141 -320 -319 -5 -68 -9 -77 -44 -116
-75 -82 -113 -200 -85 -267 20 -48 57 -70 104 -63 48 8 79 44 88 103 7 52 51
110 90 120 33 8 74 60 74 92 0 15 -7 47 -15 70 -40 114 57 206 176 167 30 -10
61 -14 77 -10 30 7 72 42 72 60 0 6 7 20 15 31 13 17 14 -6 15 -206 l0 -226
-35 -13 c-70 -25 -85 -103 -31 -157 l34 -34 1222 0 1222 0 34 34 c39 39 43 72
17 117 -10 16 -32 35 -50 41 l-33 12 2 576 3 575 50 6 c175 22 294 211 240
383 -30 95 -69 129 -449 382 l-351 234 360 0 c323 0 364 2 395 18 65 32 78
119 23 162 -23 18 -40 20 -149 20 l-124 0 0 579 0 578 48 7 c181 24 299 204
248 377 -31 110 -27 106 -709 561 -369 247 -653 429 -682 440 -63 22 -126 22
-190 0z m590 -972 l495 -330 0 -615 0 -615 -295 0 -294 0 -3 421 -3 421 -28
24 -28 24 -340 0 -341 0 -29 -29 -29 -29 0 -416 0 -416 -192 0 c-146 1 -188 3
-173 12 110 60 169 212 131 339 -25 88 -68 134 -220 234 l-135 90 -1 277 0
277 493 329 c270 182 493 330 495 331 1 0 225 -148 497 -329z m-2115 -1187
l490 -326 0 -277 0 -277 -126 -84 c-187 -123 -244 -200 -244 -325 0 -94 63
-206 145 -255 30 -19 29 -19 -167 -19 l-198 0 0 410 c0 438 -2 454 -49 480
-27 14 -675 14 -702 0 -47 -26 -49 -42 -49 -480 l0 -410 -135 0 c-106 0 -135
3 -135 13 0 35 -65 140 -116 186 -52 48 -140 91 -184 91 -20 0 -20 10 -20 473
l0 474 488 326 c268 179 493 326 500 326 6 1 233 -146 502 -326z m1820 33 l0
-285 -62 32 c-53 28 -71 32 -138 32 -67 0 -85 -4 -138 -32 l-62 -32 0 285 0
284 200 0 200 0 0 -284z m442 -835 c337 -224 621 -417 632 -429 11 -12 18 -36
18 -59 0 -46 -46 -93 -92 -93 -22 0 -172 95 -600 380 -427 284 -578 380 -600
380 -22 0 -173 -96 -600 -380 -428 -285 -578 -380 -600 -380 -43 0 -91 46 -92
88 -1 18 4 43 11 55 7 12 291 208 632 435 467 310 627 412 649 412 22 0 180
-101 642 -409z m-1422 156 c-52 -35 -107 -72 -122 -81 l-28 -18 0 81 0 81 122
0 123 0 -95 -63z m1277 -534 l492 -328 1 -617 0 -618 -295 0 -295 0 0 410 c0
440 -1 450 -51 476 -41 21 -657 21 -698 0 -50 -26 -51 -36 -51 -476 l0 -410
-295 0 -295 0 0 618 1 617 492 327 c270 181 494 328 497 328 3 0 226 -147 497
-327z m-2417 -28 l0 -345 -200 0 -200 0 0 345 0 345 200 0 200 0 0 -345z
m2120 -1185 l0 -350 -200 0 -200 0 0 350 0 350 200 0 200 0 0 -350z"/>
<path d="M3554 3926 c-37 -37 -43 -70 -20 -115 15 -28 53 -51 86 -51 51 0 100
49 100 100 0 31 -29 76 -57 89 -42 19 -73 13 -109 -23z"/>
<path d="M1464 2771 c-12 -5 -31 -22 -44 -38 -17 -22 -21 -36 -17 -68 16 -115
178 -115 194 1 4 35 1 46 -23 73 -31 33 -76 46 -110 32z"/>
<path d="M3549 1561 c-51 -52 -33 -128 37 -157 63 -26 134 24 134 94 0 50 -46
92 -100 92 -33 0 -48 -6 -71 -29z"/>
<path d="M2883 4683 c-35 -7 -73 -59 -73 -100 0 -51 45 -93 100 -93 79 0 128
86 84 149 -14 19 -76 55 -86 50 -2 -1 -13 -4 -25 -6z"/>
<path d="M719 3471 c-64 -64 -16 -171 77 -171 41 0 94 59 94 105 0 53 -44 95
-100 95 -33 0 -48 -6 -71 -29z"/>
</g>
</svg>
